<svg xmlns="http://www.w3.org/2000/svg" viewBox="0 0 120.11 56.02"><defs><style>.cls-1{fill:#221e1f;}</style></defs><g id="레이어_2" data-name="레이어 2"><g id="Layer_1" data-name="Layer 1"><rect class="cls-1" x="90.71" y="26.38" width="55.52" height="3.1" transform="translate(90.54 146.4) rotate(-90)"/><rect class="cls-1" x="15.33" width="104.69" height="3.1" transform="translate(135.34 3.1) rotate(180)"/><path class="cls-1" d="M24.53,35.1v3.1H12v8.12H8.55V38.2H0V35.1Zm-7.11-2.63H14V22.55H1.44V19.46h14.1a1.68,1.68,0,0,1,1.88,1.88Zm1.33,20.46H120.11V56H17.21a1.68,1.68,0,0,1-1.88-1.88V43.6h3.42ZM34.16,38.2a6.71,6.71,0,0,1-5-2.32,9.23,9.23,0,0,1-1.76-6.05V27.24H20.06v-3.1h7.36V12h3.43V29.16q0,5.19,3.31,5.94Z"/><path class="cls-1" d="M34.07,38.2V35.1h3.26c3.16,0,5.6-.72,7.35-2.17a7.52,7.52,0,0,0,2.61-6.11v-2.3H38.8v-3.1H59.09v3.1H50.85v2.3a7.49,7.49,0,0,0,2.45,6A10.32,10.32,0,0,0,60.14,35v3a14.5,14.5,0,0,1-6.57-1.44,10.72,10.72,0,0,1-4.48-4,10.46,10.46,0,0,1-4.52,4.17,15,15,0,0,1-6.82,1.48ZM63.86,12h3.43v9.41h5.86v3.1H67.29v4.77a7.91,7.91,0,0,0,1,4.35,3.75,3.75,0,0,0,3.37,1.46h1v3.1H71.6A7.3,7.3,0,0,1,65.83,36c-1.32-1.48-2-3.66-2-6.57Z"/><path class="cls-1" d="M72.56,38.2V35.1h5.19a4.65,4.65,0,0,0,3.79-1.54A7.14,7.14,0,0,0,82.81,29V25H77.29V21.93h9v7.36c0,2.87-.71,5.08-2.12,6.61a7.87,7.87,0,0,1-6.09,2.3Z"/><path class="cls-1" d="M86.83,38.2V35.1h.08a5.72,5.72,0,0,0,4.33-1.54A6.44,6.44,0,0,0,92.73,29V25H87.92V21.93H96.2v7.36c0,2.87-.77,5.08-2.32,6.61a9,9,0,0,1-6.63,2.3Z"/><path class="cls-1" d="M101.05,12h3.43v9.41h5.86v3.1h-5.86v4.77a7.82,7.82,0,0,0,1,4.35,3.72,3.72,0,0,0,3.36,1.46h1v3.1h-1.09A7.3,7.3,0,0,1,103,36c-1.31-1.48-2-3.66-2-6.57Z"/></g></g></svg>